<?xml version="1.0" standalone="no"?>
<!DOCTYPE svg PUBLIC "-//W3C//DTD SVG 20010904//EN"
 "http://www.w3.org/TR/2001/REC-SVG-20010904/DTD/svg10.dtd">
<svg version="1.0" xmlns="http://www.w3.org/2000/svg"
 width="700.000000pt" height="700.000000pt" viewBox="0 0 700.000000 700.000000"
 preserveAspectRatio="xMidYMid meet">
<metadata>
Created by potrace 1.14, written by Peter Selinger 2001-2017
</metadata>
<g transform="translate(0.000000,700.000000) scale(0.100000,-0.100000)"
fill="#000000" stroke="none">
<path d="M4958 6026 c-1 -2 -41 -6 -88 -10 -339 -24 -659 -209 -871 -502 -99
-137 -216 -382 -202 -422 9 -23 36 -58 94 -119 30 -31 47 -57 43 -64 -4 -8 -3
-9 4 -5 6 4 24 -8 39 -25 15 -18 36 -39 45 -47 9 -9 15 -19 12 -24 -3 -4 2 -8
10 -8 9 0 16 -3 16 -8 0 -4 20 -29 45 -55 27 -27 43 -52 39 -59 -4 -6 -3 -8 3
-5 6 4 36 -21 68 -56 32 -34 79 -85 106 -114 27 -29 49 -54 49 -56 0 -1 25
-29 55 -60 32 -33 53 -62 49 -69 -4 -6 -3 -8 3 -5 9 6 90 -76 249 -253 80 -89
120 -133 154 -169 19 -21 73 -80 120 -131 47 -51 96 -105 110 -120 14 -15 59
-65 100 -110 41 -46 96 -106 123 -134 26 -28 55 -60 65 -71 10 -11 67 -74 128
-140 60 -66 114 -125 119 -131 196 -215 214 -230 279 -237 82 -9 160 33 198
106 l21 42 0 1045 0 1045 -27 80 c-113 335 -330 602 -609 750 -145 77 -293
121 -437 131 -47 3 -90 7 -97 9 -6 2 -13 2 -15 1z"/>
<path d="M1682 6005 c-375 -69 -691 -337 -881 -747 -53 -113 -70 -166 -78
-246 -8 -86 -8 -3333 1 -3387 14 -90 32 -144 73 -223 24 -46 40 -88 37 -94 -4
-6 -2 -8 3 -5 6 4 27 -20 47 -53 20 -33 42 -65 49 -72 7 -8 28 -34 47 -58 43
-56 106 -125 145 -159 16 -14 39 -36 52 -48 13 -12 23 -19 23 -16 0 3 8 -4 19
-15 10 -12 21 -22 24 -22 9 0 101 -62 108 -73 3 -5 10 -9 15 -10 5 0 42 -15
81 -33 72 -33 152 -60 231 -78 31 -7 122 -18 157 -19 19 -1 35 -5 35 -10 0 -4
5 -5 10 -2 6 4 52 8 103 11 50 2 101 5 112 8 11 2 40 7 65 11 25 4 52 11 60
15 8 4 29 10 45 13 33 6 139 42 158 54 6 4 14 8 17 8 15 2 131 62 167 87 23
15 46 28 51 28 6 0 12 4 14 8 2 5 23 22 48 39 25 18 62 48 83 68 21 19 43 32
49 29 6 -4 8 -2 5 3 -4 6 10 28 30 49 60 64 111 132 149 200 44 79 94 223 94
272 0 42 1 41 -162 214 -62 66 -124 132 -138 147 -60 64 -211 230 -256 281
-212 236 -253 284 -281 325 -28 42 -57 125 -43 125 4 0 6 8 3 18 -4 18 40 71
61 73 6 0 20 2 30 4 48 9 135 -42 210 -124 17 -18 49 -52 71 -76 22 -23 76
-82 120 -131 43 -49 86 -96 95 -105 17 -18 150 -164 177 -195 16 -19 150 -166
213 -235 104 -113 155 -174 152 -182 -1 -4 2 -6 7 -3 5 4 13 0 18 -8 4 -7 35
-43 68 -78 33 -35 89 -97 125 -137 36 -40 78 -86 93 -102 15 -16 25 -35 21
-41 -4 -6 -3 -8 4 -4 12 7 119 -109 114 -125 -1 -6 1 -8 6 -5 5 3 35 -25 68
-62 179 -201 235 -249 370 -316 81 -40 266 -114 304 -121 8 -2 45 -10 81 -19
37 -8 80 -18 95 -22 69 -15 319 -13 394 3 41 9 87 16 102 17 14 1 25 3 23 7
-2 3 16 11 40 18 61 18 204 92 267 139 106 78 228 213 316 347 26 40 111 222
129 275 10 30 20 57 23 60 3 3 5 10 5 15 0 6 8 44 17 85 28 120 29 129 35 256
l5 120 -53 65 c-52 63 -360 419 -389 450 -8 8 -28 31 -45 50 -40 45 -201 226
-236 264 -16 17 -36 39 -46 51 -10 12 -56 63 -103 115 -103 114 -174 191 -220
243 -19 21 -46 51 -60 66 -36 39 -181 197 -209 229 -13 14 -63 69 -111 121
-49 52 -99 107 -112 121 -12 14 -63 70 -113 123 -49 54 -101 110 -114 125 -13
14 -53 58 -90 97 -36 38 -109 117 -161 174 -118 128 -138 150 -209 226 -31 33
-101 109 -156 168 -116 125 -123 134 -271 292 -61 65 -122 131 -135 145 -38
42 -260 279 -304 325 -22 23 -83 88 -135 145 -196 212 -216 230 -334 288 -106
51 -305 123 -376 135 -19 3 -46 8 -60 12 -54 13 -316 12 -388 -1z"/>
<path d="M2680 5775 c0 -8 7 -15 15 -15 8 0 15 7 15 15 0 8 -7 15 -15 15 -8 0
-15 -7 -15 -15z"/>
</g>
</svg>
